# Blender v2.68 (sub 0) OBJ File: ''
# www.blender.org
mtllib building.mtl
o Cube_Cube.001
v -1.000000 0.000000 1.000000
v -1.000000 0.000000 -1.000000
v 1.000000 0.000000 -1.000000
v 1.000000 0.000000 1.000000
v -1.000000 4.000000 1.000000
v -1.000000 4.000000 -1.000000
v 1.000000 4.000000 -1.000000
v 1.000000 4.000000 1.000000
vt 0.000000 0.000000
vt 0.006302 0.992348
vt 0.999900 0.998550
vt 0.006302 -0.004751
vt 1.010953 0.998550
vt 0.013853 0.998550
vt 0.992348 0.007652
vt 0.999900 0.999900
vt 0.000100 0.999900
vt 0.999900 0.000100
vt 0.993698 0.001450
vt 0.007652 0.007652
vt 0.000100 0.000100
vn -0.000000 -1.000000 0.000000
vn -0.000000 1.000000 0.000000
vn -1.000000 0.000000 0.000000
vn 0.000000 0.000000 -1.000000
vn 1.000000 -0.000000 0.000000
vn 0.000000 -0.000000 1.000000
usemtl Material
s off
f 1/1/1 2/1/1 4/1/1
f 8/1/2 7/1/2 5/1/2
f 2/1/1 3/1/1 4/1/1
f 7/1/2 6/1/2 5/1/2
usemtl Material_tex.png
f 5/2/3 6/3/3 1/4/3
f 6/5/4 7/6/4 2/7/4
f 7/8/5 8/9/5 3/10/5
f 8/8/6 5/9/6 4/10/6
f 6/3/3 2/11/3 1/4/3
f 7/6/4 3/12/4 2/7/4
f 8/9/5 4/13/5 3/10/5
f 5/9/6 1/13/6 4/10/6
